<svg width="26" height="25" viewBox="0 0 26 25" fill="none" xmlns="http://www.w3.org/2000/svg">
<path d="M21.3333 12.5V18.75C21.3333 21.0521 19.4687 22.9167 17.1667 22.9167H8.83333C6.53125 22.9167 4.66666 21.0521 4.66666 18.75V12.5C4.66666 11.9271 5.13541 11.4583 5.70833 11.4583H7.76041C8.33333 11.4583 8.80208 11.9271 8.80208 12.5V15.7708C8.80208 16.5417 9.22916 17.25 9.90625 17.6146C10.2083 17.7813 10.5417 17.8646 10.8854 17.8646C11.2812 17.8646 11.6771 17.75 12.0208 17.5208L13.0104 16.875L13.9271 17.4896C14.5625 17.9167 15.375 17.9688 16.0521 17.6042C16.7396 17.2396 17.1667 16.5417 17.1667 15.7604V12.5C17.1667 11.9271 17.6354 11.4583 18.2083 11.4583H20.2917C20.8646 11.4583 21.3333 11.9271 21.3333 12.5Z" fill="#939393"/>
<path d="M22.8958 7.29168V8.33334C22.8958 9.47918 22.3437 10.4167 20.8125 10.4167H5.1875C3.59375 10.4167 3.10416 9.47918 3.10416 8.33334V7.29168C3.10416 6.14584 3.59375 5.20834 5.1875 5.20834H20.8125C22.3437 5.20834 22.8958 6.14584 22.8958 7.29168Z" fill="#939393"/>
<path d="M12.6237 5.2098H6.87376C6.51959 4.82438 6.53001 4.23063 6.90501 3.85563L8.38417 2.37646C8.76959 1.99105 9.40501 1.99105 9.79042 2.37646L12.6237 5.2098Z" fill="#939393"/>
<path d="M19.1162 5.2098H13.3662L16.1996 2.37646C16.585 1.99105 17.2204 1.99105 17.6058 2.37646L19.085 3.85563C19.46 4.23063 19.4704 4.82438 19.1162 5.2098Z" fill="#939393"/>
<path d="M15.0535 11.4583C15.6265 11.4583 16.0952 11.9271 16.0952 12.5V15.7604C16.0952 16.5938 15.1681 17.0938 14.4806 16.625L13.5431 16C13.1994 15.7708 12.7515 15.7708 12.3973 16L11.4181 16.6458C10.7306 17.1042 9.81396 16.6042 9.81396 15.7813V12.5C9.81396 11.9271 10.2827 11.4583 10.8556 11.4583H15.0535Z" fill="#939393"/>
</svg>
