<svg width="25" height="25" viewBox="0 0 25 25" fill="none" xmlns="http://www.w3.org/2000/svg">
<path d="M18.114 16.3229L13.9057 12.5H11.0828L6.87445 16.3229C5.69737 17.3854 5.31195 19.0208 5.88487 20.5C6.45779 21.9688 7.85362 22.9167 9.42654 22.9167H15.562C17.1453 22.9167 18.5307 21.9688 19.1036 20.5C19.6765 19.0208 19.2911 17.3854 18.114 16.3229ZM14.3953 18.8958H10.6036C10.2078 18.8958 9.89529 18.5729 9.89529 18.1875C9.89529 17.8021 10.2182 17.4792 10.6036 17.4792H14.3953C14.7911 17.4792 15.1036 17.8021 15.1036 18.1875C15.1036 18.5729 14.7807 18.8958 14.3953 18.8958Z" fill="white"/>
<path d="M19.1152 4.50001C18.5423 3.03126 17.1464 2.08334 15.5735 2.08334H9.42775C7.85483 2.08334 6.459 3.03126 5.88608 4.50001C5.32358 5.97918 5.709 7.61459 6.88608 8.67709L11.0944 12.5H13.9173L18.1256 8.67709C19.2923 7.61459 19.6777 5.97918 19.1152 4.50001ZM14.3964 7.53126H10.6048C10.209 7.53126 9.8965 7.20834 9.8965 6.82293C9.8965 6.43751 10.2194 6.11459 10.6048 6.11459H14.3964C14.7923 6.11459 15.1048 6.43751 15.1048 6.82293C15.1048 7.20834 14.7819 7.53126 14.3964 7.53126Z" fill="white"/>
</svg>
