<svg width="26" height="25" viewBox="0 0 26 25" fill="none" xmlns="http://www.w3.org/2000/svg">
<path d="M22.1979 8.34378L15.375 2.88545C14.0417 1.82295 11.9583 1.81253 10.6354 2.87503L3.81246 8.34378C2.83329 9.12503 2.23954 10.6875 2.44787 11.9167L3.76037 19.7708C4.06246 21.5313 5.69787 22.9167 7.47912 22.9167H18.5208C20.2812 22.9167 21.9479 21.5 22.25 19.7604L23.5625 11.9063C23.75 10.6875 23.1562 9.12503 22.1979 8.34378ZM13.7812 18.75C13.7812 19.1771 13.4271 19.5313 13 19.5313C12.5729 19.5313 12.2187 19.1771 12.2187 18.75V15.625C12.2187 15.1979 12.5729 14.8438 13 14.8438C13.4271 14.8438 13.7812 15.1979 13.7812 15.625V18.75Z" fill="url(#paint0_linear_1_1186)"/>
<defs>
<linearGradient id="paint0_linear_1_1186" x1="15.1207" y1="1.92902" x2="19.1287" y2="6.24091" gradientUnits="userSpaceOnUse">
<stop stop-color="#FF6197"/>
<stop offset="1" stop-color="#F83758"/>
</linearGradient>
</defs>
</svg>
