<svg width="26" height="25" viewBox="0 0 26 25" fill="none" xmlns="http://www.w3.org/2000/svg">
<path d="M15.4477 2.08334H10.5518C9.46851 2.08334 8.58309 2.95834 8.58309 4.04168V5.02084C8.58309 6.10418 9.45809 6.97918 10.5414 6.97918H15.4477C16.531 6.97918 17.406 6.10418 17.406 5.02084V4.04168C17.4165 2.95834 16.531 2.08334 15.4477 2.08334Z" fill="#939393"/>
<path d="M18.4574 5.02029C18.4574 6.67654 17.1032 8.03071 15.447 8.03071H10.5511C8.89485 8.03071 7.54068 6.67654 7.54068 5.02029C7.54068 4.43696 6.91568 4.07238 6.39485 4.34321C4.9261 5.12446 3.9261 6.67654 3.9261 8.45779V18.2599C3.9261 20.8224 6.01985 22.9161 8.58235 22.9161H17.4157C19.9782 22.9161 22.072 20.8224 22.072 18.2599V8.45779C22.072 6.67654 21.072 5.12446 19.6032 4.34321C19.0824 4.07238 18.4574 4.43696 18.4574 5.02029ZM13.3949 17.6557H8.83235C8.40527 17.6557 8.0511 17.3016 8.0511 16.8745C8.0511 16.4474 8.40527 16.0932 8.83235 16.0932H13.3949C13.822 16.0932 14.1761 16.4474 14.1761 16.8745C14.1761 17.3016 13.822 17.6557 13.3949 17.6557ZM16.1241 13.4891H8.83235C8.40527 13.4891 8.0511 13.1349 8.0511 12.7078C8.0511 12.2807 8.40527 11.9266 8.83235 11.9266H16.1241C16.5511 11.9266 16.9053 12.2807 16.9053 12.7078C16.9053 13.1349 16.5511 13.4891 16.1241 13.4891Z" fill="#939393"/>
</svg>
