<svg width="25" height="25" viewBox="0 0 25 25" fill="none" xmlns="http://www.w3.org/2000/svg">
<path d="M12.5 2.08334C9.77083 2.08334 7.55208 4.30209 7.55208 7.03126C7.55208 9.70834 9.64583 11.875 12.375 11.9688C12.4583 11.9583 12.5417 11.9583 12.6042 11.9688C12.625 11.9688 12.6354 11.9688 12.6562 11.9688C12.6667 11.9688 12.6667 11.9688 12.6771 11.9688C15.3437 11.875 17.4375 9.70834 17.4479 7.03126C17.4479 4.30209 15.2292 2.08334 12.5 2.08334Z" fill="#F83758"/>
<path d="M12.5 2.08334C9.77083 2.08334 7.55208 4.30209 7.55208 7.03126C7.55208 9.70834 9.64583 11.875 12.375 11.9688C12.4583 11.9583 12.5417 11.9583 12.6042 11.9688C12.625 11.9688 12.6354 11.9688 12.6562 11.9688C12.6667 11.9688 12.6667 11.9688 12.6771 11.9688C15.3437 11.875 17.4375 9.70834 17.4479 7.03126C17.4479 4.30209 15.2292 2.08334 12.5 2.08334Z" fill="#939393"/>
<path d="M17.7926 14.7384C14.8864 12.8009 10.1468 12.8009 7.21973 14.7384C5.89682 15.6239 5.16765 16.8218 5.16765 18.103C5.16765 19.3843 5.89682 20.5718 7.20932 21.4468C8.66765 22.4259 10.5843 22.9155 12.5009 22.9155C14.4176 22.9155 16.3343 22.4259 17.7926 21.4468C19.1051 20.5613 19.8343 19.3739 19.8343 18.0822C19.8239 16.8009 19.1051 15.6134 17.7926 14.7384Z" fill="#939393"/>
</svg>
