<svg width="15" height="15" viewBox="0 0 15 15" fill="none" xmlns="http://www.w3.org/2000/svg">
<path d="M1.72161 9.1975L2.04514 10.4049C2.42279 11.8143 2.61162 12.5191 3.03969 12.9761C3.3777 13.337 3.81513 13.5896 4.29666 13.7018C4.90652 13.844 5.61124 13.6552 7.02069 13.2775C8.43006 12.8999 9.13481 12.7111 9.59187 12.283C9.62981 12.2474 9.6665 12.2108 9.70206 12.1731C9.49319 12.1556 9.2825 12.122 9.06837 12.0794C8.63331 11.9929 8.11637 11.8544 7.505 11.6906L7.43825 11.6727L7.42275 11.6686C6.75756 11.4903 6.20176 11.3411 5.75798 11.1808C5.29129 11.0122 4.86725 10.8044 4.50717 10.4671C4.01096 10.0024 3.66371 9.40088 3.50932 8.73875C3.39729 8.25831 3.42932 7.78713 3.51666 7.29869C3.60036 6.83063 3.75068 6.26969 3.93079 5.59758L4.26478 4.35109L4.27653 4.30725C3.07619 4.6306 2.44438 4.82191 2.02304 5.21654C1.66216 5.55454 1.40961 5.99197 1.29733 6.4735C1.15513 7.08338 1.34396 7.78806 1.72161 9.1975Z" fill="white"/>
<path fill-rule="evenodd" clip-rule="evenodd" d="M13.0183 6.69712L12.6947 7.90456C12.3171 9.314 12.1282 10.0187 11.7002 10.4757C11.3622 10.8366 10.9247 11.0892 10.4432 11.2014C10.3831 11.2155 10.322 11.2263 10.2594 11.234C9.68744 11.3046 8.98962 11.1176 7.71925 10.7772C6.30981 10.3995 5.60509 10.2107 5.14804 9.78262C4.78716 9.44462 4.53461 9.00719 4.42233 8.52562C4.28013 7.91575 4.46896 7.21106 4.84661 5.80164L5.17014 4.59423C5.22444 4.39159 5.27487 4.20337 5.32263 4.02851C5.60705 2.98723 5.79818 2.41436 6.16469 2.02304C6.50269 1.66216 6.94012 1.40961 7.42169 1.29733C8.0315 1.15513 8.73625 1.34396 10.1457 1.72161C11.5551 2.09927 12.2598 2.28809 12.7169 2.71617C13.0777 3.05417 13.3303 3.49161 13.4426 3.97314C13.5848 4.583 13.3959 5.28771 13.0183 6.69712ZM6.90775 6.12868C6.97475 5.87862 7.23181 5.73022 7.48187 5.79722L10.5004 6.60606C10.7504 6.67306 10.8988 6.93006 10.8318 7.18012C10.7648 7.43019 10.5078 7.57856 10.2577 7.51156L7.23919 6.70275C6.98912 6.63575 6.84075 6.37875 6.90775 6.12868ZM6.42225 7.93956C6.48925 7.6895 6.74625 7.54112 6.99631 7.60812L8.80744 8.09344C9.0575 8.16044 9.20587 8.41744 9.13887 8.6675C9.07187 8.91756 8.81487 9.066 8.56481 8.999L6.75369 8.51369C6.50362 8.44669 6.35519 8.18962 6.42225 7.93956Z" fill="white"/>
</svg>
