<svg width="25" height="25" viewBox="0 0 25 25" fill="none" xmlns="http://www.w3.org/2000/svg">
<g clip-path="url(#clip0_1_20180)">
<path d="M18.7505 6.24992C18.1151 6.24992 17.5318 5.88534 17.2401 5.32284L16.4901 3.81242C16.0109 2.8645 14.7609 2.08325 13.6984 2.08325H11.313C10.2401 2.08325 8.99008 2.8645 8.51092 3.81242L7.76092 5.32284C7.46925 5.88534 6.88592 6.24992 6.2505 6.24992C3.99008 6.24992 2.19842 8.15617 2.34425 10.4062L2.88592 19.0103C3.01092 21.1562 4.16717 22.9166 7.04217 22.9166H17.9589C20.8339 22.9166 21.9797 21.1562 22.1151 19.0103L22.6568 10.4062C22.8026 8.15617 21.0109 6.24992 18.7505 6.24992ZM10.938 7.552H14.063C14.4901 7.552 14.8443 7.90617 14.8443 8.33325C14.8443 8.76033 14.4901 9.1145 14.063 9.1145H10.938C10.5109 9.1145 10.1567 8.76033 10.1567 8.33325C10.1567 7.90617 10.5109 7.552 10.938 7.552ZM12.5005 18.8749C10.563 18.8749 8.97967 17.302 8.97967 15.3541C8.97967 13.4062 10.5526 11.8333 12.5005 11.8333C14.4484 11.8333 16.0214 13.4062 16.0214 15.3541C16.0214 17.302 14.438 18.8749 12.5005 18.8749Z" fill="#F83758"/>
<circle cx="20.75" cy="20.75" r="3.96" fill="#F8F9FE"/>
<path d="M20.7503 16.7917C18.5693 16.7917 16.792 18.569 16.792 20.7501C16.792 22.9311 18.5693 24.7084 20.7503 24.7084C22.9314 24.7084 24.7087 22.9311 24.7087 20.7501C24.7087 18.569 22.9314 16.7917 20.7503 16.7917ZM22.3337 21.047H21.0472V22.3334C21.0472 22.4957 20.9126 22.6303 20.7503 22.6303C20.588 22.6303 20.4535 22.4957 20.4535 22.3334V21.047H19.167C19.0047 21.047 18.8701 20.9124 18.8701 20.7501C18.8701 20.5878 19.0047 20.4532 19.167 20.4532H20.4535V19.1667C20.4535 19.0045 20.588 18.8699 20.7503 18.8699C20.9126 18.8699 21.0472 19.0045 21.0472 19.1667V20.4532H22.3337C22.496 20.4532 22.6305 20.5878 22.6305 20.7501C22.6305 20.9124 22.496 21.047 22.3337 21.047Z" fill="#F83758"/>
</g>
<defs>
<clipPath id="clip0_1_20180">
<rect width="25" height="25" fill="white"/>
</clipPath>
</defs>
</svg>
