<svg width="16" height="16" viewBox="0 0 16 16" fill="none" xmlns="http://www.w3.org/2000/svg">
<path fill-rule="evenodd" clip-rule="evenodd" d="M14.6666 7.99992C14.6666 11.6818 11.6818 14.6666 7.99998 14.6666C6.93351 14.6666 5.92556 14.4162 5.03167 13.9709C4.79412 13.8527 4.5226 13.8133 4.26624 13.8819L2.78221 14.2789C2.13799 14.4513 1.54861 13.8619 1.72099 13.2177L2.11806 11.7337C2.18665 11.4773 2.14727 11.2058 2.02895 10.9683C1.58373 10.0743 1.33331 9.06638 1.33331 7.99992C1.33331 4.31802 4.31808 1.33325 7.99998 1.33325C11.6818 1.33325 14.6666 4.31802 14.6666 7.99992ZM4.99998 7.40552C4.99998 8.31779 5.87921 9.27498 6.68571 9.96105C7.23491 10.4283 7.50958 10.662 7.99998 10.662C8.49038 10.662 8.76505 10.4283 9.31425 9.96105C10.1208 9.27498 11 8.31779 11 7.40552C11 5.62075 9.34991 4.9544 7.99998 6.33312C6.65003 4.9544 4.99998 5.62075 4.99998 7.40552Z" fill="white"/>
</svg>
