<svg width="30" height="30" viewBox="0 0 30 30" fill="none" xmlns="http://www.w3.org/2000/svg">
<g clip-path="url(#clip0_1_21200)">
<path d="M8.56645 28.8895C8.30144 29.0266 7.98495 29.0441 7.66663 28.726L0.404874 21.3104C-0.237262 20.655 -0.0877254 19.7917 0.656596 19.2541C1.60789 18.5671 2.87979 17.4472 3.95312 15.8098C4.4558 15.0421 5.17431 14.9906 5.67118 15.7617L7.46241 18.5424C7.96005 19.3142 8.53254 20.282 8.83986 20.1732C8.9645 20.1292 9.11571 20.0212 9.29595 19.8077L23.8538 1.50865C24.4254 0.790907 25.232 0.868043 25.6567 1.68141L29.789 9.6079C30.2135 10.4213 29.9776 11.547 29.2623 12.1219L10.5546 27.1558C9.84003 27.7307 9.05339 28.6395 8.56645 28.8895Z" fill="#D4D6DD"/>
</g>
<defs>
<clipPath id="clip0_1_21200">
<rect width="30" height="30" fill="white"/>
</clipPath>
</defs>
</svg>
