<svg width="25" height="25" viewBox="0 0 25 25" fill="none" xmlns="http://www.w3.org/2000/svg">
<path d="M17.708 2.08325H7.29134C4.41634 2.08325 2.08301 4.40617 2.08301 7.27075V13.4999V14.5416C2.08301 17.4062 4.41634 19.7291 7.29134 19.7291H8.85384C9.13509 19.7291 9.51009 19.9166 9.68717 20.1458L11.2497 22.2187C11.9372 23.1353 13.0622 23.1353 13.7497 22.2187L15.3122 20.1458C15.5101 19.8853 15.8226 19.7291 16.1455 19.7291H17.708C20.583 19.7291 22.9163 17.4062 22.9163 14.5416V7.27075C22.9163 4.40617 20.583 2.08325 17.708 2.08325ZM13.5413 14.3228H7.29134C6.86426 14.3228 6.51009 13.9687 6.51009 13.5416C6.51009 13.1145 6.86426 12.7603 7.29134 12.7603H13.5413C13.9684 12.7603 14.3226 13.1145 14.3226 13.5416C14.3226 13.9687 13.9684 14.3228 13.5413 14.3228ZM17.708 9.1145H7.29134C6.86426 9.1145 6.51009 8.76033 6.51009 8.33325C6.51009 7.90617 6.86426 7.552 7.29134 7.552H17.708C18.1351 7.552 18.4893 7.90617 18.4893 8.33325C18.4893 8.76033 18.1351 9.1145 17.708 9.1145Z" fill="#939393"/>
</svg>
