<svg width="22" height="22" viewBox="0 0 22 22" fill="none" xmlns="http://www.w3.org/2000/svg">
<g clip-path="url(#clip0_1_22171)">
<mask id="mask0_1_22171" style="mask-type:alpha" maskUnits="userSpaceOnUse" x="0" y="0" width="22" height="22">
<circle cx="11.0001" cy="11.0001" r="10.0833" fill="#D9D9D9"/>
</mask>
<g mask="url(#mask0_1_22171)">
<rect width="22" height="22" fill="#3AC0A0"/>
</g>
</g>
<path d="M10.6562 13.865H9.625C9.12083 13.865 8.70833 14.2775 8.70833 14.7817V14.8963H8.25C8.06208 14.8963 7.90625 15.0521 7.90625 15.24C7.90625 15.4279 8.06208 15.5838 8.25 15.5838H13.75C13.9379 15.5838 14.0937 15.4279 14.0937 15.24C14.0937 15.0521 13.9379 14.8963 13.75 14.8963H13.2917V14.7817C13.2917 14.2775 12.8792 13.865 12.375 13.865H11.3437V12.8154C11.2292 12.8292 11.1146 12.8338 11 12.8338C10.8854 12.8338 10.7708 12.8292 10.6562 12.8154V13.865Z" fill="white"/>
<path d="M13.9697 10.8351C14.2722 10.7205 14.538 10.5326 14.7488 10.3217C15.1751 9.84966 15.4547 9.28591 15.4547 8.62591C15.4547 7.96591 14.9368 7.448 14.2768 7.448H14.0201C13.7222 6.83841 13.0988 6.41675 12.3747 6.41675H9.62468C8.90051 6.41675 8.27718 6.83841 7.97926 7.448H7.72259C7.06259 7.448 6.54468 7.96591 6.54468 8.62591C6.54468 9.28591 6.82426 9.84966 7.25051 10.3217C7.46134 10.5326 7.72718 10.7205 8.02968 10.8351C8.50634 12.0084 9.65218 12.8334 10.9997 12.8334C12.3472 12.8334 13.493 12.0084 13.9697 10.8351ZM12.3013 9.373L12.0172 9.72133C11.9713 9.77175 11.9393 9.87258 11.9438 9.94133L11.9713 10.3905C11.9897 10.6655 11.7926 10.8076 11.5359 10.7067L11.1188 10.5417C11.0547 10.5188 10.9447 10.5188 10.8805 10.5417L10.4634 10.7067C10.2068 10.8076 10.0097 10.6655 10.028 10.3905L10.0555 9.94133C10.0601 9.87258 10.028 9.77175 9.98218 9.72133L9.69801 9.373C9.51926 9.16216 9.59718 8.92841 9.86301 8.85966L10.2984 8.74966C10.3672 8.73133 10.4497 8.66716 10.4863 8.60758L10.7293 8.23175C10.8805 7.998 11.1188 7.998 11.2701 8.23175L11.513 8.60758C11.5497 8.66716 11.6322 8.73133 11.7009 8.74966L12.1363 8.85966C12.4022 8.92841 12.4801 9.16216 12.3013 9.373Z" fill="white"/>
<defs>
<clipPath id="clip0_1_22171">
<rect width="22" height="22" fill="white"/>
</clipPath>
</defs>
</svg>
