<svg width="16" height="16" viewBox="0 0 16 16" fill="none" xmlns="http://www.w3.org/2000/svg">
<path d="M14.0464 3.48666C12.9731 3.37999 11.8997 3.29999 10.8197 3.23999V3.23333L10.6731 2.36666C10.5731 1.75333 10.4264 0.833328 8.86638 0.833328H7.11972C5.56636 0.833328 5.4197 1.71333 5.31303 2.35999L5.17303 3.21333C4.55303 3.25333 3.93303 3.29333 3.31303 3.35333L1.95303 3.48666C1.67303 3.51333 1.47303 3.75999 1.4997 4.03333C1.52636 4.30666 1.76636 4.50666 2.04636 4.47999L3.40636 4.34666C6.89972 3.99999 10.4197 4.13333 13.9531 4.48666C13.9731 4.48666 13.9864 4.48666 14.0064 4.48666C14.2597 4.48666 14.4797 4.29333 14.5064 4.03333C14.5264 3.75999 14.3264 3.51333 14.0464 3.48666Z" fill="white"/>
<path d="M12.8199 5.42667C12.6599 5.26001 12.4399 5.16667 12.2132 5.16667H3.78658C3.55991 5.16667 3.33325 5.26001 3.17991 5.42667C3.02658 5.59334 2.93991 5.82 2.95325 6.05334L3.36658 12.8933C3.43991 13.9067 3.53325 15.1733 5.85991 15.1733H10.1399C12.4665 15.1733 12.5599 13.9133 12.6332 12.8933L13.0465 6.06001C13.0599 5.82001 12.9732 5.59334 12.8199 5.42667ZM9.10655 11.8333H6.88655C6.61325 11.8333 6.38658 11.6067 6.38658 11.3333C6.38658 11.06 6.61325 10.8333 6.88655 10.8333H9.10655C9.37988 10.8333 9.60655 11.06 9.60655 11.3333C9.60655 11.6067 9.37988 11.8333 9.10655 11.8333ZM9.66655 9.16667H6.33325C6.05991 9.16667 5.83325 8.94 5.83325 8.66667C5.83325 8.39334 6.05991 8.16667 6.33325 8.16667H9.66655C9.93988 8.16667 10.1665 8.39334 10.1665 8.66667C10.1665 8.94 9.93988 9.16667 9.66655 9.16667Z" fill="white"/>
</svg>
