<svg width="25" height="25" viewBox="0 0 25 25" fill="none" xmlns="http://www.w3.org/2000/svg">
<path fill-rule="evenodd" clip-rule="evenodd" d="M13.9959 6.02395C13.0633 5.51545 11.9363 5.51545 11.0038 6.02395L6.00982 8.74705C5.00567 9.29459 4.38086 10.347 4.38086 11.4907V16.634C4.38086 17.7778 5.00567 18.8302 6.00982 19.3777L11.0038 22.1008C11.9363 22.6093 13.0633 22.6093 13.9959 22.1008L18.9898 19.3777C19.994 18.8302 20.6188 17.7778 20.6188 16.634V11.4907C20.6188 10.347 19.994 9.29459 18.9898 8.74705L13.9959 6.02395ZM12.5001 10.9374C12.2041 10.9374 12.0062 11.2924 11.6104 12.0025L11.508 12.1862C11.3956 12.388 11.3393 12.4888 11.2516 12.5554C11.1639 12.622 11.0547 12.6468 10.8363 12.6961L10.6375 12.7411C9.86876 12.9151 9.48444 13.002 9.393 13.296C9.30157 13.5901 9.56357 13.8964 10.0876 14.5093L10.2232 14.6678C10.3721 14.8419 10.4465 14.9289 10.4801 15.0367C10.5135 15.1444 10.5022 15.2605 10.4797 15.4929L10.4592 15.7044C10.38 16.522 10.3404 16.9307 10.5797 17.1125C10.8192 17.2942 11.179 17.1285 11.8987 16.7972L12.0848 16.7114C12.2894 16.6173 12.3916 16.5702 12.5001 16.5702C12.6085 16.5702 12.7107 16.6173 12.9153 16.7114L13.1014 16.7972C13.8211 17.1285 14.1809 17.2942 14.4204 17.1125C14.6597 16.9307 14.6201 16.522 14.5409 15.7044L14.5204 15.4929C14.4979 15.2605 14.4866 15.1444 14.5201 15.0367C14.5536 14.9289 14.6281 14.8419 14.7769 14.6678L14.9126 14.5093C15.4365 13.8964 15.6986 13.5901 15.6071 13.296C15.5157 13.002 15.1313 12.9151 14.3627 12.7411L14.1638 12.6961C13.9454 12.6468 13.8362 12.622 13.7485 12.5554C13.6608 12.4888 13.6045 12.388 13.4921 12.1862L13.3897 12.0025C12.9939 11.2924 12.796 10.9374 12.5001 10.9374Z" fill="url(#paint0_linear_1_22155)"/>
<path d="M11.4584 2.08325H13.5417C15.5059 2.08325 16.488 2.08325 17.0982 2.69345C17.7084 3.30364 17.7084 4.28573 17.7084 6.24992V6.26864L14.7439 4.65217C13.3451 3.88944 11.6547 3.88943 10.2558 4.65217L7.29175 6.26841V6.24992C7.29175 4.28573 7.29175 3.30364 7.90195 2.69345C8.51213 2.08325 9.49423 2.08325 11.4584 2.08325Z" fill="url(#paint1_linear_1_22155)"/>
<defs>
<linearGradient id="paint0_linear_1_22155" x1="12.4349" y1="5.64258" x2="12.4349" y2="22.4821" gradientUnits="userSpaceOnUse">
<stop stop-color="#64C1ED"/>
<stop offset="1" stop-color="#1886FE"/>
</linearGradient>
<linearGradient id="paint1_linear_1_22155" x1="12.4584" y1="2.08325" x2="12.4584" y2="6.26864" gradientUnits="userSpaceOnUse">
<stop stop-color="#64C1ED"/>
<stop offset="1" stop-color="#1886FE"/>
</linearGradient>
</defs>
</svg>
