<svg width="16" height="16" viewBox="0 0 16 16" fill="none" xmlns="http://www.w3.org/2000/svg">
<path d="M12.6804 2.32107C11.387 1.02774 10.1204 0.994405 8.79371 2.32107L7.98704 3.12774C7.92038 3.1944 7.89371 3.30107 7.92037 3.3944C8.42704 5.16107 9.84038 6.5744 11.607 7.08106C11.6337 7.08772 11.6604 7.09439 11.687 7.09439C11.7604 7.09439 11.827 7.06772 11.8804 7.01439L12.6804 6.20774C13.3404 5.5544 13.6604 4.92107 13.6604 4.28107C13.667 3.62107 13.347 2.98107 12.6804 2.32107Z" fill="white"/>
<path d="M10.4065 7.6872C10.2132 7.59386 10.0265 7.50053 9.84654 7.39386C9.69987 7.3072 9.55987 7.21386 9.41987 7.11386C9.30654 7.04053 9.17321 6.93386 9.04654 6.8272C9.03321 6.82053 8.98654 6.78053 8.93321 6.7272C8.71321 6.54052 8.46654 6.30052 8.24654 6.03385C8.22654 6.02052 8.19321 5.97385 8.14654 5.91385C8.07987 5.83385 7.96654 5.70052 7.86654 5.54718C7.78654 5.44718 7.69321 5.30052 7.60654 5.15385C7.49987 4.97385 7.40654 4.79385 7.31321 4.60718C7.29907 4.57692 7.28541 4.54681 7.27221 4.51688C7.17381 4.29466 6.88401 4.2297 6.71221 4.40154L2.89322 8.22053C2.80655 8.3072 2.72655 8.47386 2.70655 8.5872L2.34655 11.1405C2.27989 11.5939 2.40655 12.0205 2.68655 12.3072C2.92655 12.5405 3.25989 12.6672 3.61989 12.6672C3.69989 12.6672 3.77989 12.6605 3.85989 12.6472L6.41989 12.2872C6.53989 12.2672 6.70654 12.1872 6.78654 12.1005L10.6007 8.28633C10.7738 8.11326 10.7085 7.81633 10.4835 7.72026C10.4581 7.70946 10.4325 7.6984 10.4065 7.6872Z" fill="white"/>
</svg>
