<svg width="20" height="20" viewBox="0 0 20 20" fill="none" xmlns="http://www.w3.org/2000/svg">
<path fill-rule="evenodd" clip-rule="evenodd" d="M15.3917 17.1087C15.6358 17.3527 16.0315 17.3527 16.2756 17.1087L17.9422 15.442C18.1863 15.1979 18.1863 14.8022 17.9422 14.5582C17.6981 14.3141 17.3025 14.3141 17.0584 14.5582L16.4586 15.1578V11.6667C16.4586 11.3216 16.1788 11.0417 15.8336 11.0417C15.4885 11.0417 15.2086 11.3216 15.2086 11.6667V15.1578L14.6089 14.5582C14.3648 14.3141 13.9691 14.3141 13.7251 14.5582C13.481 14.8022 13.481 15.1979 13.7251 15.442L15.3917 17.1087Z" fill="white"/>
<path d="M8.33371 3.33325H11.667C14.8097 3.33325 16.3811 3.33325 17.3574 4.30956C18.0604 5.01251 18.2572 6.02394 18.3123 7.70825H1.68848C1.74358 6.02394 1.9404 5.01251 2.64335 4.30956C3.61967 3.33325 5.19101 3.33325 8.33371 3.33325Z" fill="white"/>
<path fill-rule="evenodd" clip-rule="evenodd" d="M8.33366 16.6666H11.667C12.2166 16.6666 12.7181 16.6666 13.1768 16.6613L12.8412 16.3258C12.1089 15.5935 12.1089 14.4063 12.8412 13.6741C13.1542 13.3611 13.5504 13.1818 13.9587 13.1364V11.6666C13.9587 10.6311 14.7982 9.79159 15.8337 9.79159C16.8692 9.79159 17.7087 10.6311 17.7087 11.6666V13.1364C17.8952 13.1572 18.0792 13.2058 18.254 13.2825C18.3337 12.4309 18.3337 11.3633 18.3337 9.99992C18.3337 9.63167 18.3337 9.28492 18.3321 8.95825H1.66857C1.66699 9.28492 1.66699 9.63167 1.66699 9.99992C1.66699 13.1426 1.66699 14.714 2.6433 15.6903C3.61962 16.6666 5.19096 16.6666 8.33366 16.6666ZM5.00033 12.7083C4.65515 12.7083 4.37533 12.9881 4.37533 13.3333C4.37533 13.6784 4.65515 13.9583 5.00033 13.9583H8.33366C8.67883 13.9583 8.95866 13.6784 8.95866 13.3333C8.95866 12.9881 8.67883 12.7083 8.33366 12.7083H5.00033ZM10.417 12.7083C10.0718 12.7083 9.79199 12.9881 9.79199 13.3333C9.79199 13.6784 10.0718 13.9583 10.417 13.9583H11.667C12.0122 13.9583 12.292 13.6784 12.292 13.3333C12.292 12.9881 12.0122 12.7083 11.667 12.7083H10.417Z" fill="white"/>
</svg>
