<svg width="25" height="25" viewBox="0 0 25 25" fill="none" xmlns="http://www.w3.org/2000/svg">
<path d="M17.708 2.08337H7.29134C4.41634 2.08337 2.08301 4.40629 2.08301 7.27087V13.5V14.5417C2.08301 17.4063 4.41634 19.7292 7.29134 19.7292H8.85384C9.13509 19.7292 9.51009 19.9167 9.68717 20.1459L11.2497 22.2188C11.9372 23.1355 13.0622 23.1355 13.7497 22.2188L15.3122 20.1459C15.5101 19.8855 15.8226 19.7292 16.1455 19.7292H17.708C20.583 19.7292 22.9163 17.4063 22.9163 14.5417V7.27087C22.9163 4.40629 20.583 2.08337 17.708 2.08337ZM13.5413 14.323H7.29134C6.86426 14.323 6.51009 13.9688 6.51009 13.5417C6.51009 13.1146 6.86426 12.7605 7.29134 12.7605H13.5413C13.9684 12.7605 14.3226 13.1146 14.3226 13.5417C14.3226 13.9688 13.9684 14.323 13.5413 14.323ZM17.708 9.11462H7.29134C6.86426 9.11462 6.51009 8.76046 6.51009 8.33337C6.51009 7.90629 6.86426 7.55212 7.29134 7.55212H17.708C18.1351 7.55212 18.4893 7.90629 18.4893 8.33337C18.4893 8.76046 18.1351 9.11462 17.708 9.11462Z" fill="#939393"/>
</svg>
