<svg width="25" height="25" viewBox="0 0 25 25" fill="none" xmlns="http://www.w3.org/2000/svg">
<path d="M16.8643 2.08337H8.13509C4.34342 2.08337 2.08301 4.34379 2.08301 8.13546V16.8542C2.08301 20.6563 4.34342 22.9167 8.13509 22.9167H16.8538C20.6455 22.9167 22.9059 20.6563 22.9059 16.8646V8.13546C22.9163 4.34379 20.6559 2.08337 16.8643 2.08337ZM17.708 18.198C15.9268 18.198 14.2601 17.4271 12.9268 16C11.4163 17.3646 9.44759 18.198 7.29134 18.198C6.86426 18.198 6.51009 17.8438 6.51009 17.4167C6.51009 16.9896 6.86426 16.6355 7.29134 16.6355C10.9059 16.6355 13.8955 13.7709 14.2809 10.1042H12.4997H7.30176C6.87467 10.1042 6.52051 9.75004 6.52051 9.32296C6.52051 8.89587 6.87467 8.55212 7.30176 8.55212H11.7184V7.58337C11.7184 7.15629 12.0726 6.80212 12.4997 6.80212C12.9268 6.80212 13.2809 7.15629 13.2809 7.58337V8.55212H15.0413C15.0622 8.55212 15.083 8.54171 15.1038 8.54171C15.1247 8.54171 15.1455 8.55212 15.1663 8.55212H17.6976C18.1247 8.55212 18.4788 8.90629 18.4788 9.33337C18.4788 9.76046 18.1247 10.1146 17.6976 10.1146H15.8434C15.6872 11.8959 15.0205 13.5313 13.9997 14.8646C15.0413 16.0209 16.3434 16.6459 17.708 16.6459C18.1351 16.6459 18.4893 17 18.4893 17.4271C18.4893 17.8542 18.1351 18.198 17.708 18.198Z" fill="#939393"/>
</svg>
