<svg width="26" height="26" viewBox="0 0 26 26" fill="none" xmlns="http://www.w3.org/2000/svg">
<circle cx="13" cy="13" r="11" fill="white"/>
<path d="M13 8.39581C10.9525 8.39581 10.5625 9.25165 10.5625 10.8333V11.505H15.4375V10.8333C15.4375 9.25165 15.0475 8.39581 13 8.39581Z" fill="#F83758"/>
<path d="M13.25 16.5C13.9405 16.5 14.5 15.9405 14.5 15.25C14.5 14.5597 13.9405 14 13.25 14C12.5597 14 12 14.5597 12 15.25C12 15.9405 12.5597 16.5 13.25 16.5Z" fill="#F83758"/>
<path d="M13 2C6.928 2 2 6.928 2 13C2 19.072 6.928 24 13 24C19.072 24 24 19.072 24 13C24 6.928 19.072 2 13 2ZM18.918 15.75C18.918 18.17 18.17 18.918 15.75 18.918H10.25C7.83 18.918 7.082 18.17 7.082 15.75V14.65C7.082 12.769 7.533 11.9 8.875 11.603V10.8C8.875 9.777 8.875 6.675 13 6.675C17.125 6.675 17.125 9.777 17.125 10.8V11.603C18.467 11.9 18.918 12.769 18.918 14.65V15.75Z" fill="#F83758"/>
<path d="M13 2C6.928 2 2 6.928 2 13C2 19.072 6.928 24 13 24C19.072 24 24 19.072 24 13C24 6.928 19.072 2 13 2ZM18.918 15.75C18.918 18.17 18.17 18.918 15.75 18.918H10.25C7.83 18.918 7.082 18.17 7.082 15.75V14.65C7.082 12.769 7.533 11.9 8.875 11.603V10.8C8.875 9.777 8.875 6.675 13 6.675C17.125 6.675 17.125 9.777 17.125 10.8V11.603C18.467 11.9 18.918 12.769 18.918 14.65V15.75Z" fill="url(#paint0_linear_1_19012)"/>
<defs>
<linearGradient id="paint0_linear_1_19012" x1="15.2" y1="1.83704" x2="19.437" y2="6.31852" gradientUnits="userSpaceOnUse">
<stop stop-color="#FF6197"/>
<stop offset="1" stop-color="#F83758"/>
</linearGradient>
</defs>
</svg>
