<svg width="25" height="25" viewBox="0 0 25 25" fill="none" xmlns="http://www.w3.org/2000/svg">
<path fill-rule="evenodd" clip-rule="evenodd" d="M13.9959 6.02408C13.0633 5.51558 11.9363 5.51558 11.0038 6.02408L6.00982 8.74717C5.00567 9.29471 4.38086 10.3471 4.38086 11.4908V16.6342C4.38086 17.7779 5.00567 18.8303 6.00982 19.3778L11.0038 22.1009C11.9363 22.6094 13.0633 22.6094 13.9959 22.1009L18.9898 19.3778C19.994 18.8303 20.6188 17.7779 20.6188 16.6342V11.4908C20.6188 10.3471 19.994 9.29471 18.9898 8.74717L13.9959 6.02408ZM12.5001 10.9375C12.2041 10.9375 12.0062 11.2925 11.6104 12.0026L11.508 12.1864C11.3956 12.3881 11.3393 12.489 11.2516 12.5555C11.1639 12.6221 11.0547 12.6469 10.8363 12.6963L10.6375 12.7413C9.86876 12.9152 9.48444 13.0021 9.393 13.2961C9.30157 13.5902 9.56357 13.8966 10.0876 14.5094L10.2232 14.6679C10.3721 14.842 10.4465 14.9291 10.4801 15.0368C10.5135 15.1445 10.5022 15.2606 10.4797 15.493L10.4592 15.7045C10.38 16.5221 10.3404 16.9308 10.5797 17.1126C10.8192 17.2943 11.179 17.1286 11.8987 16.7973L12.0848 16.7116C12.2894 16.6174 12.3916 16.5703 12.5001 16.5703C12.6085 16.5703 12.7107 16.6174 12.9153 16.7116L13.1014 16.7973C13.8211 17.1286 14.1809 17.2943 14.4204 17.1126C14.6597 16.9308 14.6201 16.5221 14.5409 15.7045L14.5204 15.493C14.4979 15.2606 14.4866 15.1445 14.5201 15.0368C14.5536 14.9291 14.6281 14.842 14.7769 14.6679L14.9126 14.5094C15.4365 13.8966 15.6986 13.5902 15.6071 13.2961C15.5157 13.0021 15.1313 12.9152 14.3627 12.7413L14.1638 12.6963C13.9454 12.6469 13.8362 12.6221 13.7485 12.5555C13.6608 12.489 13.6045 12.3881 13.4921 12.1864L13.3897 12.0026C12.9939 11.2925 12.796 10.9375 12.5001 10.9375Z" fill="url(#paint0_linear_1_11939)"/>
<path d="M11.4583 2.08331H13.5416C15.5058 2.08331 16.4879 2.08331 17.0981 2.69351C17.7083 3.3037 17.7083 4.28579 17.7083 6.24998V6.2687L14.7438 4.65223C13.345 3.8895 11.6545 3.88949 10.2557 4.65223L7.29163 6.26847V6.24998C7.29163 4.28579 7.29163 3.3037 7.90182 2.69351C8.51201 2.08331 9.49411 2.08331 11.4583 2.08331Z" fill="url(#paint1_linear_1_11939)"/>
<defs>
<linearGradient id="paint0_linear_1_11939" x1="14.1236" y1="5.51796" x2="17.3713" y2="8.83025" gradientUnits="userSpaceOnUse">
<stop stop-color="#FF6197"/>
<stop offset="1" stop-color="#F83758"/>
</linearGradient>
<linearGradient id="paint1_linear_1_11939" x1="13.5416" y1="2.05231" x2="14.0777" y2="3.46337" gradientUnits="userSpaceOnUse">
<stop stop-color="#FF6197"/>
<stop offset="1" stop-color="#F83758"/>
</linearGradient>
</defs>
</svg>
