<svg width="15" height="15" viewBox="0 0 15 15" fill="none" xmlns="http://www.w3.org/2000/svg">
<path d="M8.96862 1.25H6.0311C5.3811 1.25 4.84985 1.775 4.84985 2.425V3.0125C4.84985 3.6625 5.37485 4.1875 6.02485 4.1875H8.96862C9.61862 4.1875 10.1436 3.6625 10.1436 3.0125V2.425C10.1499 1.775 9.61862 1.25 8.96862 1.25Z" fill="white"/>
<path d="M10.7744 3.01218C10.7744 4.00593 9.96194 4.81843 8.96819 4.81843H6.03066C5.03691 4.81843 4.22441 4.00593 4.22441 3.01218C4.22441 2.66218 3.84941 2.44343 3.53691 2.60593C2.65566 3.07468 2.05566 4.00593 2.05566 5.07468V10.9559C2.05566 12.4934 3.31191 13.7497 4.84941 13.7497H10.1494C11.6869 13.7497 12.9432 12.4934 12.9432 10.9559V5.07468C12.9432 4.00593 12.3432 3.07468 11.4619 2.60593C11.1494 2.44343 10.7744 2.66218 10.7744 3.01218ZM7.73694 10.5934H4.99941C4.74316 10.5934 4.53066 10.3809 4.53066 10.1247C4.53066 9.86844 4.74316 9.65594 4.99941 9.65594H7.73694C7.99319 9.65594 8.20569 9.86844 8.20569 10.1247C8.20569 10.3809 7.99319 10.5934 7.73694 10.5934ZM9.37444 8.09344H4.99941C4.74316 8.09344 4.53066 7.88094 4.53066 7.62469C4.53066 7.36844 4.74316 7.15594 4.99941 7.15594H9.37444C9.63069 7.15594 9.84319 7.36844 9.84319 7.62469C9.84319 7.88094 9.63069 8.09344 9.37444 8.09344Z" fill="white"/>
</svg>
