<svg width="10" height="10" viewBox="0 0 10 10" fill="none" xmlns="http://www.w3.org/2000/svg">
<path d="M5.00004 0.833313C3.90837 0.833313 3.02087 1.72081 3.02087 2.81248C3.02087 3.88331 3.85837 4.74998 4.95004 4.78748C4.98337 4.78331 5.01671 4.78331 5.04171 4.78748C5.05004 4.78748 5.05421 4.78748 5.06254 4.78748C5.06671 4.78748 5.06671 4.78748 5.07087 4.78748C6.13754 4.74998 6.97504 3.88331 6.97921 2.81248C6.97921 1.72081 6.09171 0.833313 5.00004 0.833313Z" fill="url(#paint0_linear_1_11960)"/>
<path d="M7.117 5.8954C5.9545 5.1204 4.05868 5.1204 2.88785 5.8954C2.35868 6.24956 2.06702 6.72873 2.06702 7.24123C2.06702 7.75373 2.35868 8.22873 2.88368 8.57873C3.46702 8.9704 4.23367 9.16623 5.00033 9.16623C5.767 9.16623 6.53367 8.9704 7.117 8.57873C7.642 8.22456 7.93367 7.74956 7.93367 7.2329C7.9295 6.7204 7.642 6.2454 7.117 5.8954Z" fill="url(#paint1_linear_1_11960)"/>
<defs>
<linearGradient id="paint0_linear_1_11960" x1="5.39587" y1="0.804023" x2="6.15737" y2="1.6103" gradientUnits="userSpaceOnUse">
<stop stop-color="#FF6197"/>
<stop offset="1" stop-color="#F83758"/>
</linearGradient>
<linearGradient id="paint1_linear_1_11960" x1="5.58701" y1="5.28561" x2="6.25293" y2="6.35831" gradientUnits="userSpaceOnUse">
<stop stop-color="#FF6197"/>
<stop offset="1" stop-color="#F83758"/>
</linearGradient>
</defs>
</svg>
