<svg width="26" height="25" viewBox="0 0 26 25" fill="none" xmlns="http://www.w3.org/2000/svg">
<g clip-path="url(#clip0_1_20239)">
<circle cx="21.1956" cy="4" r="4" fill="#FE3B30"/>
<path fill-rule="evenodd" clip-rule="evenodd" d="M3.49996 5.38713C2.27957 6.60753 2.27957 8.57171 2.27957 12.5001C2.27957 16.4284 2.27957 18.3927 3.49996 19.613C4.72035 20.8334 6.68453 20.8334 10.6129 20.8334H14.7796C18.7079 20.8334 20.6722 20.8334 21.8925 19.613C23.1129 18.3927 23.1129 16.4284 23.1129 12.5001C23.1129 8.57171 23.1129 6.60753 21.8925 5.38713C20.6722 4.16675 18.7079 4.16675 14.7796 4.16675H10.6129C6.68453 4.16675 4.72035 4.16675 3.49996 5.38713ZM19.5464 7.83327C19.8226 8.16474 19.7778 8.65736 19.4463 8.93359L17.1584 10.8403C16.2351 11.6097 15.4868 12.2333 14.8262 12.6581C14.1382 13.1006 13.4682 13.3802 12.6962 13.3802C11.9243 13.3802 11.2543 13.1006 10.5662 12.6581C9.90574 12.2333 9.15739 11.6097 8.23411 10.8403L5.94609 8.93359C5.61462 8.65736 5.56984 8.16474 5.84606 7.83327C6.12229 7.5018 6.61492 7.45702 6.94638 7.73324L9.19523 9.60728C10.1671 10.4172 10.8418 10.9776 11.4114 11.3439C11.9628 11.6986 12.3368 11.8177 12.6962 11.8177C13.0557 11.8177 13.4297 11.6986 13.981 11.3439C14.5507 10.9776 15.2254 10.4172 16.1973 9.60728L18.4461 7.73324C18.7776 7.45702 19.2702 7.5018 19.5464 7.83327Z" fill="#939393"/>
</g>
<defs>
<clipPath id="clip0_1_20239">
<rect width="25" height="25" fill="white" transform="translate(0.195587)"/>
</clipPath>
</defs>
</svg>
