<svg width="60" height="60" viewBox="0 0 60 60" fill="none" xmlns="http://www.w3.org/2000/svg">
<path fill-rule="evenodd" clip-rule="evenodd" d="M8.66117 8.66117C5 12.3223 5 18.2149 5 30C5 41.785 5 47.6777 8.66117 51.3387C12.3223 55 18.2149 55 30 55C41.785 55 47.6777 55 51.3387 51.3387C55 47.6777 55 41.785 55 30C55 18.2149 55 12.3223 51.3387 8.66117C47.6777 5 41.785 5 30 5C18.2149 5 12.3223 5 8.66117 8.66117ZM18.8751 24.0001C18.0467 23.3788 17.8788 22.2035 18.5001 21.3751C19.1214 20.5467 20.2967 20.3788 21.1251 21.0001L26.125 24.7501C26.5972 25.1042 26.875 25.66 26.875 26.25C26.875 26.8402 26.5972 27.396 26.125 27.75L21.1251 31.5C20.2967 32.1215 19.1214 31.9535 18.5001 31.125C17.8788 30.2967 18.0467 29.1215 18.8751 28.5L21.8751 26.25L18.8751 24.0001ZM41.5 21.3751C42.1215 22.2035 41.9535 23.3788 41.125 24.0001L38.125 26.25L41.125 28.5C41.9535 29.1215 42.1215 30.2967 41.5 31.125C40.8787 31.9535 39.7035 32.1215 38.875 31.5L33.875 27.75C33.403 27.396 33.125 26.8402 33.125 26.25C33.125 25.66 33.403 25.1042 33.875 24.7501L38.875 21.0001C39.7035 20.3788 40.8787 20.5467 41.5 21.3751ZM38.826 41.326C38.0937 42.0582 36.9065 42.0582 36.1742 41.326L34.999 40.1507C33.597 41.474 31.4017 41.4737 30 40.1497C28.5985 41.4737 26.4032 41.474 25.0012 40.1507L23.8259 41.326C23.0937 42.0582 21.9065 42.0582 21.1743 41.326C20.442 40.5937 20.442 39.4065 21.1743 38.6742L22.4243 37.4242C23.8219 36.0267 26.0725 36.0022 27.5 37.3507C28.9022 36.0262 31.098 36.0262 32.5 37.3507C33.9277 36.0022 36.1782 36.0267 37.576 37.4242L38.826 38.6742C39.5582 39.4065 39.5582 40.5937 38.826 41.326Z" fill="#939393"/>
</svg>
