<svg width="80" height="80" viewBox="0 0 80 80" fill="none" xmlns="http://www.w3.org/2000/svg">
<g clip-path="url(#clip0_1_20168)">
<rect width="80" height="80" rx="32" fill="#9B9B9B"/>
<path d="M40.5 12.25C31.0025 12.25 23.2812 19.9713 23.2812 29.4688C23.2812 38.785 30.5675 46.325 40.065 46.6512C40.355 46.615 40.645 46.615 40.8625 46.6512C40.935 46.6512 40.9712 46.6512 41.0437 46.6512C41.08 46.6512 41.08 46.6512 41.1162 46.6512C50.3962 46.325 57.6825 38.785 57.7187 29.4688C57.7187 19.9713 49.9975 12.25 40.5 12.25Z" fill="#19191A"/>
<path d="M58.9183 56.2898C48.8045 49.5473 32.3109 49.5473 22.1247 56.2898C17.5209 59.371 14.9834 63.5398 14.9834 67.9985C14.9834 72.4573 17.5209 76.5898 22.0884 79.6348C27.1634 83.0423 33.8333 84.746 40.5033 84.746C47.1733 84.746 53.8433 83.0423 58.9183 79.6348C63.4858 76.5535 66.0233 72.421 66.0233 67.926C65.987 63.4673 63.4858 59.3348 58.9183 56.2898Z" fill="#19191A"/>
<rect x="1" y="1" width="78" height="78" rx="31" stroke="#9B9B9B" stroke-width="2"/>
</g>
<defs>
<clipPath id="clip0_1_20168">
<rect width="80" height="80" rx="32" fill="white"/>
</clipPath>
</defs>
</svg>
