<svg width="25" height="25" viewBox="0 0 25 25" fill="none" xmlns="http://www.w3.org/2000/svg">
<circle cx="21" cy="4" r="4" fill="#FE3B30"/>
<path d="M21.0304 14.6467L19.8533 12.6883C19.5929 12.2613 19.3638 11.4383 19.3638 10.9383V8.9904C19.3638 5.20915 16.2908 2.13623 12.52 2.13623C8.73878 2.14665 5.66587 5.20915 5.66587 8.9904V10.9279C5.66587 11.4279 5.4367 12.2508 5.1867 12.6779L4.00962 14.6363C3.5617 15.3967 3.45753 16.2612 3.73878 17.0112C4.02003 17.7717 4.65545 18.3758 5.48878 18.6467C6.61378 19.0217 7.7492 19.2925 8.90545 19.4904C9.02003 19.5113 9.13462 19.5217 9.2492 19.5425C9.39503 19.5633 9.55128 19.5842 9.70753 19.605C9.97837 19.6467 10.2492 19.6779 10.5304 19.6988C11.1867 19.7613 11.8533 19.7925 12.52 19.7925C13.1763 19.7925 13.8325 19.7613 14.4783 19.6988C14.7179 19.6779 14.9575 19.6571 15.1867 19.6258C15.3742 19.605 15.5617 19.5842 15.7492 19.5529C15.8638 19.5425 15.9783 19.5217 16.0929 19.5008C17.2596 19.3133 18.4158 19.0217 19.5408 18.6467C20.3429 18.3758 20.9575 17.7717 21.2492 17.0008C21.5408 16.2196 21.4575 15.3654 21.0304 14.6467ZM13.2804 10.4175C13.2804 10.855 12.9263 11.2092 12.4888 11.2092C12.0513 11.2092 11.6971 10.855 11.6971 10.4175V7.18831C11.6971 6.75081 12.0513 6.39665 12.4888 6.39665C12.9263 6.39665 13.2804 6.75081 13.2804 7.18831V10.4175Z" fill="#939393"/>
<path d="M15.4479 20.8437C15.0104 22.052 13.8542 22.9166 12.5 22.9166C11.6771 22.9166 10.8646 22.5833 10.2917 21.9895C9.95833 21.677 9.70833 21.2603 9.5625 20.8333C9.69792 20.8541 9.83333 20.8645 9.97917 20.8853C10.2187 20.9166 10.4688 20.9478 10.7188 20.9687C11.3125 21.0208 11.9167 21.052 12.5208 21.052C13.1146 21.052 13.7083 21.0208 14.2917 20.9687C14.5104 20.9478 14.7292 20.9374 14.9375 20.9062C15.1042 20.8853 15.2708 20.8645 15.4479 20.8437Z" fill="#939393"/>
</svg>
