<svg width="25" height="25" viewBox="0 0 25 25" fill="none" xmlns="http://www.w3.org/2000/svg">
<path d="M21.0304 14.6467L19.8533 12.6883C19.5929 12.2613 19.3637 11.4383 19.3637 10.9383V8.9904C19.3637 5.20915 16.2908 2.13623 12.52 2.13623C8.73878 2.14665 5.66586 5.20915 5.66586 8.9904V10.9279C5.66586 11.4279 5.43669 12.2508 5.18669 12.6779L4.00961 14.6363C3.56169 15.3967 3.45753 16.2612 3.73878 17.0112C4.02003 17.7717 4.65544 18.3758 5.48878 18.6467C6.61378 19.0217 7.74919 19.2925 8.90544 19.4904C9.02003 19.5113 9.13461 19.5217 9.24919 19.5425C9.39503 19.5633 9.55128 19.5842 9.70753 19.605C9.97836 19.6467 10.2492 19.6779 10.5304 19.6988C11.1867 19.7613 11.8533 19.7925 12.52 19.7925C13.1762 19.7925 13.8325 19.7613 14.4783 19.6988C14.7179 19.6779 14.9575 19.6571 15.1867 19.6258C15.3742 19.605 15.5617 19.5842 15.7492 19.5529C15.8637 19.5425 15.9783 19.5217 16.0929 19.5008C17.2596 19.3133 18.4158 19.0217 19.5408 18.6467C20.3429 18.3758 20.9575 17.7717 21.2492 17.0008C21.5408 16.2196 21.4575 15.3654 21.0304 14.6467ZM13.2804 10.4175C13.2804 10.855 12.9262 11.2092 12.4887 11.2092C12.0512 11.2092 11.6971 10.855 11.6971 10.4175V7.18831C11.6971 6.75081 12.0512 6.39665 12.4887 6.39665C12.9262 6.39665 13.2804 6.75081 13.2804 7.18831V10.4175Z" fill="#939393"/>
<path d="M15.4479 20.8438C15.0104 22.0521 13.8542 22.9167 12.5 22.9167C11.6771 22.9167 10.8646 22.5834 10.2917 21.9896C9.95833 21.6771 9.70833 21.2605 9.5625 20.8334C9.69792 20.8542 9.83333 20.8646 9.97917 20.8855C10.2187 20.9167 10.4688 20.948 10.7188 20.9688C11.3125 21.0209 11.9167 21.0521 12.5208 21.0521C13.1146 21.0521 13.7083 21.0209 14.2917 20.9688C14.5104 20.948 14.7292 20.9375 14.9375 20.9063C15.1042 20.8855 15.2708 20.8646 15.4479 20.8438Z" fill="#8F9098"/>
</svg>
