<svg width="25" height="26" viewBox="0 0 25 26" fill="none" xmlns="http://www.w3.org/2000/svg">
<path d="M17.2072 17.6889C17.3895 17.5467 17.5548 17.3814 17.8855 17.0506L22.0078 12.9283C22.1074 12.8288 22.0618 12.6571 21.9286 12.6108C21.4421 12.4421 20.8091 12.1251 20.217 11.533C19.6249 10.9409 19.3079 10.3079 19.1392 9.82135C19.0929 9.68819 18.9213 9.64258 18.8217 9.74223L14.6994 13.8645C14.3686 14.1952 14.2033 14.3605 14.0611 14.5428C13.8934 14.7579 13.7496 14.9905 13.6323 15.2368C13.5328 15.4454 13.4589 15.6673 13.311 16.1109L13.1199 16.6842L12.816 17.5956L12.5311 18.4503C12.4584 18.6686 12.5152 18.9093 12.6779 19.0721C12.8407 19.2348 13.0814 19.2916 13.2997 19.2189L14.1544 18.934L15.0658 18.6301L15.6391 18.439C16.0826 18.2911 16.3046 18.2172 16.5132 18.1177C16.7595 18.0004 16.9921 17.8566 17.2072 17.6889Z" fill="#8F9098"/>
<path d="M23.2984 11.6377C24.1783 10.7578 24.1783 9.33133 23.2984 8.4515C22.4186 7.57167 20.9922 7.57167 20.1123 8.4515L19.9798 8.58403C19.8519 8.71192 19.794 8.89054 19.8259 9.06856C19.846 9.18054 19.8832 9.34426 19.951 9.53962C20.0866 9.93031 20.3425 10.4432 20.8247 10.9253C21.3068 11.4075 21.8197 11.6634 22.2103 11.7989C22.4057 11.8667 22.5694 11.9039 22.6814 11.924C22.8594 11.956 23.038 11.8981 23.1659 11.7702L23.2984 11.6377Z" fill="#8F9098"/>
<path fill-rule="evenodd" clip-rule="evenodd" d="M4.34539 3.80376C3.125 5.02416 3.125 6.98833 3.125 10.9167V15.0834C3.125 19.0117 3.125 20.976 4.34539 22.1963C5.56578 23.4167 7.52996 23.4167 11.4583 23.4167H13.5417C17.47 23.4167 19.4343 23.4167 20.6546 22.1963C21.8554 20.9955 21.8747 19.0746 21.875 15.271L18.9393 18.2067C18.6582 18.4879 18.4281 18.7182 18.1682 18.921C17.8636 19.1585 17.5342 19.3621 17.1855 19.5283C16.8879 19.67 16.5791 19.773 16.2019 19.8985L13.7939 20.7012C13.0141 20.9611 12.1544 20.7582 11.5731 20.1769C10.992 19.5957 10.789 18.736 11.049 17.9562L11.3339 17.1016L11.8287 15.6168L11.8516 15.5483C11.9772 15.1711 12.08 14.8621 12.2218 14.5645C12.3879 14.2159 12.5916 13.8864 12.8292 13.5819C13.0319 13.3219 13.2622 13.0918 13.5434 12.8108L17.7168 8.63742L18.875 7.47925L19.0075 7.34673C19.7527 6.60151 20.7295 6.22901 21.7062 6.22921C21.5486 5.15572 21.2439 4.39303 20.6546 3.80376C19.4343 2.58337 17.47 2.58337 13.5417 2.58337H11.4583C7.52996 2.58337 5.56578 2.58337 4.34539 3.80376ZM7.55208 9.87504C7.55208 9.44357 7.90186 9.09379 8.33333 9.09379H15.1042C15.5356 9.09379 15.8854 9.44357 15.8854 9.87504C15.8854 10.3065 15.5356 10.6563 15.1042 10.6563H8.33333C7.90186 10.6563 7.55208 10.3065 7.55208 9.87504ZM7.55208 14.0417C7.55208 13.6102 7.90186 13.2605 8.33333 13.2605H10.9375C11.369 13.2605 11.7188 13.6102 11.7188 14.0417C11.7188 14.4732 11.369 14.823 10.9375 14.823H8.33333C7.90186 14.823 7.55208 14.4732 7.55208 14.0417ZM7.55208 18.2084C7.55208 17.7769 7.90186 17.4271 8.33333 17.4271H9.89583C10.3273 17.4271 10.6771 17.7769 10.6771 18.2084C10.6771 18.6398 10.3273 18.9896 9.89583 18.9896H8.33333C7.90186 18.9896 7.55208 18.6398 7.55208 18.2084Z" fill="#939393"/>
</svg>
