<svg width="25" height="25" viewBox="0 0 25 25" fill="none" xmlns="http://www.w3.org/2000/svg">
<path d="M9.37467 2.08337C6.64551 2.08337 4.42676 4.30212 4.42676 7.03129C4.42676 9.70837 6.52051 11.875 9.24967 11.9688C9.33301 11.9584 9.41634 11.9584 9.47884 11.9688C9.49967 11.9688 9.51009 11.9688 9.53092 11.9688C9.54134 11.9688 9.54134 11.9688 9.55176 11.9688C12.2184 11.875 14.3122 9.70837 14.3226 7.03129C14.3226 4.30212 12.1038 2.08337 9.37467 2.08337Z" fill="#939393"/>
<path d="M14.6679 14.7384C11.7617 12.8009 7.02213 12.8009 4.09505 14.7384C2.77214 15.6238 2.04297 16.8217 2.04297 18.103C2.04297 19.3842 2.77214 20.5717 4.08464 21.4467C5.54297 22.4259 7.45963 22.9155 9.3763 22.9155C11.2929 22.9155 13.2096 22.4259 14.6679 21.4467C15.9804 20.5613 16.7096 19.3738 16.7096 18.0822C16.6992 16.8009 15.9804 15.6134 14.6679 14.7384Z" fill="#939393"/>
<path d="M20.8223 7.6439C20.989 9.66474 19.5515 11.4355 17.5619 11.6751C17.5515 11.6751 17.5515 11.6751 17.541 11.6751H17.5098C17.4473 11.6751 17.3848 11.6751 17.3327 11.6959C16.3223 11.748 15.3952 11.4251 14.6973 10.8314C15.7702 9.87307 16.3848 8.43557 16.2598 6.87307C16.1869 6.02932 15.8952 5.25849 15.4577 4.60224C15.8535 4.40432 16.3119 4.27932 16.7806 4.23765C18.8223 4.06057 20.6452 5.5814 20.8223 7.6439Z" fill="#939393"/>
<path d="M22.9045 17.2817C22.8212 18.2921 22.1753 19.1671 21.092 19.7609C20.0503 20.3338 18.7378 20.6046 17.4357 20.5734C18.1857 19.8963 18.6232 19.0525 18.7066 18.1567C18.8107 16.865 18.1962 15.6255 16.967 14.6359C16.2691 14.0838 15.4566 13.6463 14.5712 13.3234C16.8732 12.6567 19.7691 13.1046 21.5503 14.5421C22.5086 15.313 22.9982 16.2817 22.9045 17.2817Z" fill="#939393"/>
</svg>
