<svg width="18" height="18" viewBox="0 0 18 18" fill="none" xmlns="http://www.w3.org/2000/svg">
<path d="M6.75 1.5C4.785 1.5 3.1875 3.0975 3.1875 5.0625C3.1875 6.99 4.695 8.55 6.66 8.6175C6.72 8.61 6.78 8.61 6.825 8.6175C6.84 8.6175 6.8475 8.6175 6.8625 8.6175C6.87 8.6175 6.87 8.6175 6.8775 8.6175C8.7975 8.55 10.305 6.99 10.3125 5.0625C10.3125 3.0975 8.715 1.5 6.75 1.5Z" fill="url(#paint0_linear_1_20160)"/>
<path d="M10.5607 10.6117C8.46818 9.21668 5.05571 9.21668 2.94821 10.6117C1.99571 11.2492 1.47071 12.1117 1.47071 13.0342C1.47071 13.9567 1.99571 14.8117 2.94071 15.4417C3.99071 16.1467 5.37071 16.4992 6.75071 16.4992C8.13068 16.4992 9.51068 16.1467 10.5607 15.4417C11.5057 14.8042 12.0307 13.9492 12.0307 13.0192C12.0232 12.0967 11.5057 11.2417 10.5607 10.6117Z" fill="url(#paint1_linear_1_20160)"/>
<path d="M14.9921 5.50361C15.1121 6.95861 14.0771 8.23357 12.6446 8.40607C12.6371 8.40607 12.637 8.40607 12.6295 8.40607H12.6071C12.5621 8.40607 12.5171 8.40607 12.4796 8.42107C11.7521 8.45857 11.0846 8.22607 10.5821 7.79857C11.3546 7.10861 11.7971 6.07361 11.7071 4.94861C11.6546 4.34111 11.4446 3.78611 11.1296 3.31361C11.4146 3.17111 11.7446 3.08111 12.0821 3.05111C13.5521 2.92361 14.8646 4.01861 14.9921 5.50361Z" fill="url(#paint2_linear_1_20160)"/>
<path d="M16.4912 12.4428C16.4312 13.1703 15.9662 13.8003 15.1862 14.2278C14.4362 14.6403 13.4912 14.8353 12.5537 14.8128C13.0937 14.3253 13.4087 13.7178 13.4687 13.0728C13.5437 12.1428 13.1012 11.2503 12.2162 10.5378C11.7137 10.1403 11.1287 9.8253 10.4912 9.5928C12.1487 9.1128 14.2337 9.4353 15.5162 10.4703C16.2062 11.0253 16.5587 11.7228 16.4912 12.4428Z" fill="url(#paint3_linear_1_20160)"/>
<defs>
<linearGradient id="paint0_linear_1_20160" x1="7.4625" y1="1.44728" x2="8.8332" y2="2.89858" gradientUnits="userSpaceOnUse">
<stop stop-color="#FF6197"/>
<stop offset="1" stop-color="#F83758"/>
</linearGradient>
<linearGradient id="paint1_linear_1_20160" x1="7.80669" y1="9.51407" x2="9.00535" y2="11.4449" gradientUnits="userSpaceOnUse">
<stop stop-color="#FF6197"/>
<stop offset="1" stop-color="#F83758"/>
</linearGradient>
<linearGradient id="paint2_linear_1_20160" x1="13.2337" y1="3.00113" x2="14.262" y2="3.89388" gradientUnits="userSpaceOnUse">
<stop stop-color="#FF6197"/>
<stop offset="1" stop-color="#F83758"/>
</linearGradient>
<linearGradient id="paint3_linear_1_20160" x1="14.0961" y1="9.33471" x2="15.1328" y2="10.5458" gradientUnits="userSpaceOnUse">
<stop stop-color="#FF6197"/>
<stop offset="1" stop-color="#F83758"/>
</linearGradient>
</defs>
</svg>
