<svg width="25" height="25" viewBox="0 0 25 25" fill="none" xmlns="http://www.w3.org/2000/svg">
<path d="M21.2602 7.25146V9.15771C21.2602 9.82438 20.9477 10.4494 20.406 10.8348L8.94774 19.2306C8.20816 19.7723 7.19774 19.7723 6.46858 19.2202L4.96858 18.0952C4.29149 17.5848 3.73941 16.4806 3.73941 15.6369V7.25146C3.73941 6.0848 4.63524 4.79313 5.72899 4.38688L11.4269 2.25146C12.0206 2.03271 12.979 2.03271 13.5727 2.25146L19.2706 4.38688C20.3644 4.79313 21.2602 6.0848 21.2602 7.25146Z" fill="#939393"/>
<path d="M19.6055 12.8557C20.293 12.3557 21.2618 12.8452 21.2618 13.6994V15.6577C21.2618 16.5015 20.7097 17.5952 20.0326 18.1057L14.3347 22.3661C13.8347 22.7307 13.168 22.9182 12.5013 22.9182C11.8347 22.9182 11.168 22.7307 10.668 22.3557L9.80339 21.7098C9.24089 21.2932 9.24089 20.4494 9.81381 20.0327L19.6055 12.8557Z" fill="#8F9098"/>
</svg>
