<svg width="16" height="16" viewBox="0 0 16 16" fill="none" xmlns="http://www.w3.org/2000/svg">
<mask id="mask0_638_322" style="mask-type:alpha" maskUnits="userSpaceOnUse" x="0" y="0" width="16" height="16">
<path fill-rule="evenodd" clip-rule="evenodd" d="M6.42692 0.333252C3.06409 0.333252 0.333252 3.03764 0.333252 6.37948C0.333252 9.72131 3.06409 12.4257 6.42692 12.4257C7.68067 12.4257 8.84691 12.0497 9.8162 11.4049L13.7916 15.3475C14.2205 15.7729 14.9148 15.7729 15.3437 15.3475C15.7742 14.9206 15.7742 14.2273 15.3437 13.8004L11.3938 9.88304C12.1031 8.89479 12.5206 7.68523 12.5206 6.37948C12.5206 3.03764 9.78976 0.333252 6.42692 0.333252ZM2.53109 6.37948C2.53109 4.2497 4.27271 2.51847 6.42692 2.51847C8.58114 2.51847 10.3228 4.2497 10.3228 6.37948C10.3228 8.50925 8.58114 10.2405 6.42692 10.2405C4.27271 10.2405 2.53109 8.50925 2.53109 6.37948Z" fill="#006FFD"/>
</mask>
<g mask="url(#mask0_638_322)">
<rect width="16" height="16" fill="#8F9098"/>
</g>
</svg>
