<svg width="25" height="25" viewBox="0 0 25 25" fill="none" xmlns="http://www.w3.org/2000/svg">
<path d="M20.7289 2.40337C20.5613 1.97671 19.9597 1.97671 19.7921 2.40337L19.3437 3.54428C19.2926 3.67454 19.1899 3.77766 19.0601 3.82903L17.9233 4.279C17.4982 4.44727 17.4982 5.05108 17.9233 5.21936L19.0601 5.66934C19.1899 5.72071 19.2926 5.82381 19.3437 5.95407L19.7921 7.09499C19.9597 7.52165 20.5613 7.52165 20.7289 7.095L21.1773 5.95407C21.2284 5.82381 21.3311 5.72071 21.4609 5.66934L22.5977 5.21936C23.0228 5.05108 23.0228 4.44727 22.5977 4.279L21.4609 3.82903C21.3311 3.77766 21.2284 3.67454 21.1773 3.54428L20.7289 2.40337Z" fill="#8F9098"/>
<path d="M16.7004 8.46842C16.5327 8.04178 15.9311 8.04178 15.7634 8.46842L15.6 8.88441C15.5488 9.01467 15.4461 9.11778 15.3163 9.16915L14.9018 9.33321C14.4767 9.50148 14.4767 10.1053 14.9018 10.2736L15.3163 10.4376C15.4461 10.489 15.5488 10.5921 15.6 10.7224L15.7634 11.1383C15.9311 11.565 16.5327 11.565 16.7004 11.1383L16.8638 10.7224C16.915 10.5921 17.0177 10.489 17.1475 10.4376L17.5619 10.2736C17.987 10.1053 17.987 9.50148 17.5619 9.33321L17.1475 9.16915C17.0177 9.11778 16.915 9.01467 16.8638 8.88441L16.7004 8.46842Z" fill="#8F9098"/>
<path d="M12.4997 22.9167C18.2526 22.9167 22.9163 18.253 22.9163 12.5C22.9163 12.0181 22.1939 11.9384 21.9447 12.3509C20.7589 14.3132 18.6054 15.625 16.1455 15.625C12.406 15.625 9.37467 12.5937 9.37467 8.85421C9.37467 6.39426 10.6865 4.24072 12.6488 3.055C13.0613 2.80574 12.9817 2.08337 12.4997 2.08337C6.74671 2.08337 2.08301 6.74707 2.08301 12.5C2.08301 18.253 6.74671 22.9167 12.4997 22.9167Z" fill="#939393"/>
</svg>
