<svg width="20" height="20" viewBox="0 0 20 20" fill="none" xmlns="http://www.w3.org/2000/svg">
<path d="M8.33371 3.33325H11.667C14.8097 3.33325 16.3811 3.33325 17.3574 4.30956C18.0604 5.01251 18.2572 6.02394 18.3123 7.70825H1.68848C1.74358 6.02394 1.9404 5.01251 2.64335 4.30956C3.61967 3.33325 5.19101 3.33325 8.33371 3.33325Z" fill="#F83758"/>
<path fill-rule="evenodd" clip-rule="evenodd" d="M18.3332 10.6812L17.9928 10.3408C17.2606 9.6085 16.0734 9.6085 15.3412 10.3408L14.6733 11.0086C14.4068 10.2977 13.721 9.79159 12.917 9.79159C11.8815 9.79159 11.042 10.6311 11.042 11.6666V13.1364C10.6337 13.1818 10.2376 13.3611 9.92449 13.6741C9.19224 14.4063 9.19224 15.5935 9.92449 16.3258L10.2653 16.6666H8.33366C5.19096 16.6666 3.61962 16.6666 2.6433 15.6903C1.66699 14.714 1.66699 13.1426 1.66699 9.99992C1.66699 9.63167 1.66699 9.28492 1.66857 8.95825H18.3321C18.3337 9.28492 18.3337 9.63167 18.3337 9.99992C18.3337 10.2358 18.3337 10.4627 18.3332 10.6812ZM5.00033 12.7083C4.65515 12.7083 4.37533 12.9881 4.37533 13.3333C4.37533 13.6784 4.65515 13.9583 5.00033 13.9583H8.33366C8.67883 13.9583 8.95866 13.6784 8.95866 13.3333C8.95866 12.9881 8.67883 12.7083 8.33366 12.7083H5.00033Z" fill="#F83758"/>
<path fill-rule="evenodd" clip-rule="evenodd" d="M12.9166 11.0417C13.2618 11.0417 13.5416 11.3216 13.5416 11.6667V15.1578L14.1414 14.5582C14.3855 14.3141 14.7811 14.3141 15.0252 14.5582C15.2693 14.8022 15.2693 15.1979 15.0252 15.442L13.3586 17.1087C13.1145 17.3527 12.7188 17.3527 12.4747 17.1087L10.8081 15.442C10.564 15.1979 10.564 14.8022 10.8081 14.5582C11.0521 14.3141 11.4478 14.3141 11.6919 14.5582L12.2916 15.1578V11.6667C12.2916 11.3216 12.5715 11.0417 12.9166 11.0417ZM16.2247 11.2248C16.4688 10.9807 16.8645 10.9807 17.1086 11.2248L18.7752 12.8915C19.0193 13.1356 19.0193 13.5312 18.7752 13.7753C18.5311 14.0194 18.1355 14.0194 17.8914 13.7753L17.2916 13.1757V16.6667C17.2916 17.0119 17.0118 17.2917 16.6666 17.2917C16.3215 17.2917 16.0416 17.0119 16.0416 16.6667V13.1757L15.4419 13.7753C15.1978 14.0194 14.8021 14.0194 14.5581 13.7753C14.314 13.5312 14.314 13.1356 14.5581 12.8915L16.2247 11.2248Z" fill="#F83758"/>
</svg>
