<svg width="26" height="25" viewBox="0 0 26 25" fill="none" xmlns="http://www.w3.org/2000/svg">
<path fill-rule="evenodd" clip-rule="evenodd" d="M10.6119 4.16675H14.7786C18.7069 4.16675 20.6712 4.16675 21.8915 5.38713C23.1119 6.60753 23.1119 8.57171 23.1119 12.5001C23.1119 16.4284 23.1119 18.3927 21.8915 19.613C20.6712 20.8334 18.7069 20.8334 14.7786 20.8334H10.6119C6.68352 20.8334 4.71935 20.8334 3.49895 19.613C2.27856 18.3927 2.27856 16.4284 2.27856 12.5001C2.27856 8.57171 2.27856 6.60753 3.49895 5.38713C4.71935 4.16675 6.68352 4.16675 10.6119 4.16675ZM13.9973 9.37508C13.9973 8.94361 14.3471 8.59383 14.7786 8.59383H19.9869C20.4184 8.59383 20.7681 8.94361 20.7681 9.37508C20.7681 9.80655 20.4184 10.1563 19.9869 10.1563H14.7786C14.3471 10.1563 13.9973 9.80655 13.9973 9.37508ZM15.039 12.5001C15.039 12.0686 15.3888 11.7188 15.8202 11.7188H19.9869C20.4184 11.7188 20.7681 12.0686 20.7681 12.5001C20.7681 12.9315 20.4184 13.2813 19.9869 13.2813H15.8202C15.3888 13.2813 15.039 12.9315 15.039 12.5001ZM16.0806 15.6251C16.0806 15.1936 16.4304 14.8438 16.8619 14.8438H19.9869C20.4184 14.8438 20.7681 15.1936 20.7681 15.6251C20.7681 16.0565 20.4184 16.4063 19.9869 16.4063H16.8619C16.4304 16.4063 16.0806 16.0565 16.0806 15.6251ZM11.6536 9.37508C11.6536 10.5257 10.7209 11.4584 9.57023 11.4584C8.41964 11.4584 7.4869 10.5257 7.4869 9.37508C7.4869 8.22449 8.41964 7.29175 9.57023 7.29175C10.7209 7.29175 11.6536 8.22449 11.6536 9.37508ZM9.57023 17.7084C13.7369 17.7084 13.7369 16.7757 13.7369 15.6251C13.7369 14.4745 11.8714 13.5417 9.57023 13.5417C7.26904 13.5417 5.40356 14.4745 5.40356 15.6251C5.40356 16.7757 5.40356 17.7084 9.57023 17.7084Z" fill="#939393"/>
</svg>
